<svg width="38" height="38" viewBox="0 0 38 38" fill="none" xmlns="http://www.w3.org/2000/svg">
<path fill-rule="evenodd" clip-rule="evenodd" d="M11.4417 0.776626C13.3967 0.686626 14.02 0.666626 19 0.666626C23.98 0.666626 24.6033 0.688293 26.5567 0.776626C28.51 0.864959 29.8433 1.17663 31.01 1.62829C32.2317 2.08996 33.34 2.81163 34.2567 3.74496C35.19 4.65996 35.91 5.76663 36.37 6.98996C36.8233 8.15662 37.1333 9.48996 37.2233 11.44C37.3133 13.3983 37.3333 14.0216 37.3333 19C37.3333 23.98 37.3117 24.6033 37.2233 26.5583C37.135 28.5083 36.8233 29.8416 36.37 31.0083C35.91 32.2318 35.1888 33.3403 34.2567 34.2566C33.34 35.19 32.2317 35.91 31.01 36.37C29.8433 36.8233 28.51 37.1333 26.56 37.2233C24.6033 37.3133 23.98 37.3333 19 37.3333C14.02 37.3333 13.3967 37.3116 11.4417 37.2233C9.49166 37.135 8.15833 36.8233 6.99166 36.37C5.7682 35.9099 4.6597 35.1887 3.74333 34.2566C2.81063 33.3411 2.08886 32.2331 1.62833 31.01C1.17667 29.8433 0.866666 28.51 0.776666 26.56C0.686666 24.6016 0.666666 23.9783 0.666666 19C0.666666 14.02 0.688333 13.3966 0.776666 11.4433C0.864999 9.48996 1.17667 8.15662 1.62833 6.98996C2.08954 5.76676 2.81186 4.65881 3.745 3.74329C4.66007 2.81079 5.76745 2.08903 6.99 1.62829C8.15666 1.17663 9.49 0.866626 11.44 0.776626H11.4417ZM26.4083 4.07663C24.475 3.98829 23.895 3.96996 19 3.96996C14.105 3.96996 13.525 3.98829 11.5917 4.07663C9.80333 4.15829 8.83333 4.45663 8.18667 4.70829C7.33167 5.04163 6.72 5.43663 6.07833 6.07829C5.47007 6.67004 5.00197 7.39043 4.70833 8.18663C4.45667 8.83329 4.15833 9.80329 4.07667 11.5916C3.98833 13.525 3.97 14.105 3.97 19C3.97 23.895 3.98833 24.475 4.07667 26.4083C4.15833 28.1966 4.45667 29.1666 4.70833 29.8133C5.00167 30.6083 5.47 31.33 6.07833 31.9216C6.67 32.53 7.39166 32.9983 8.18667 33.2916C8.83333 33.5433 9.80333 33.8416 11.5917 33.9233C13.525 34.0116 14.1033 34.03 19 34.03C23.8967 34.03 24.475 34.0116 26.4083 33.9233C28.1967 33.8416 29.1667 33.5433 29.8133 33.2916C30.6683 32.9583 31.28 32.5633 31.9217 31.9216C32.53 31.33 32.9983 30.6083 33.2917 29.8133C33.5433 29.1666 33.8417 28.1966 33.9233 26.4083C34.0117 24.475 34.03 23.895 34.03 19C34.03 14.105 34.0117 13.525 33.9233 11.5916C33.8417 9.80329 33.5433 8.83329 33.2917 8.18663C32.9583 7.33162 32.5633 6.71996 31.9217 6.07829C31.3299 5.47008 30.6095 5.00198 29.8133 4.70829C29.1667 4.45663 28.1967 4.15829 26.4083 4.07663ZM16.6583 24.6516C17.9661 25.196 19.4223 25.2695 20.7782 24.8595C22.1341 24.4495 23.3056 23.5815 24.0927 22.4037C24.8797 21.2259 25.2334 19.8114 25.0934 18.4018C24.9534 16.9922 24.3283 15.6749 23.325 14.675C22.6854 14.0358 21.912 13.5463 21.0606 13.2419C20.2091 12.9374 19.3007 12.8256 18.4008 12.9143C17.5009 13.0031 16.6319 13.2903 15.8563 13.7552C15.0808 14.2201 14.4179 14.8512 13.9155 15.603C13.4131 16.3549 13.0836 17.2088 12.9509 18.1032C12.8181 18.9977 12.8852 19.9104 13.1476 20.7758C13.4099 21.6412 13.8608 22.4376 14.4679 23.1078C15.0749 23.778 15.823 24.3053 16.6583 24.6516ZM12.3367 12.3366C13.2117 11.4616 14.2505 10.7675 15.3938 10.2939C16.5371 9.82032 17.7625 9.57658 19 9.57658C20.2375 9.57658 21.4629 9.82032 22.6062 10.2939C23.7495 10.7675 24.7883 11.4616 25.6633 12.3366C26.5384 13.2117 27.2325 14.2505 27.7061 15.3938C28.1796 16.5371 28.4234 17.7625 28.4234 19C28.4234 20.2375 28.1796 21.4628 27.7061 22.6061C27.2325 23.7494 26.5384 24.7882 25.6633 25.6633C23.8961 27.4305 21.4992 28.4233 19 28.4233C16.5008 28.4233 14.1039 27.4305 12.3367 25.6633C10.5694 23.8961 9.57662 21.4992 9.57662 19C9.57662 16.5007 10.5694 14.1038 12.3367 12.3366ZM30.5133 10.98C30.7302 10.7754 30.9038 10.5294 31.0238 10.2566C31.1439 9.98374 31.208 9.68957 31.2124 9.39151C31.2167 9.09344 31.1612 8.79754 31.0491 8.52131C30.9371 8.24508 30.7707 7.99414 30.5599 7.78336C30.3491 7.57257 30.0982 7.40622 29.822 7.29415C29.5457 7.18209 29.2498 7.12658 28.9518 7.13093C28.6537 7.13527 28.3596 7.19938 28.0867 7.31945C27.8139 7.43952 27.5679 7.61312 27.3633 7.82996C26.9655 8.25167 26.7477 8.81183 26.7562 9.39151C26.7646 9.97119 26.9986 10.5248 27.4086 10.9347C27.8185 11.3446 28.3721 11.5787 28.9518 11.5871C29.5315 11.5956 30.0916 11.3778 30.5133 10.98Z" fill="url(#paint0_radial_7_175)"/>
<defs>
<radialGradient id="paint0_radial_7_175" cx="0" cy="0" r="1" gradientUnits="userSpaceOnUse" gradientTransform="translate(43.9028 -11.7083) rotate(134.318) scale(65.0207 675.943)">
<stop stop-color="#9EFF00"/>
<stop offset="0.4784" stop-color="#4200FF"/>
<stop offset="0.756597" stop-color="#FF0000"/>
<stop offset="1" stop-color="white"/>
</radialGradient>
</defs>
</svg>
